<?xml version="1.0" encoding="UTF-8" standalone="no"?>
<!DOCTYPE svg PUBLIC "-//W3C//DTD SVG 1.1//EN" "http://www.w3.org/Graphics/SVG/1.1/DTD/svg11.dtd">
<svg width="100%" height="100%" viewBox="0 0 323 119" version="1.1" xmlns="http://www.w3.org/2000/svg" xmlns:xlink="http://www.w3.org/1999/xlink" xml:space="preserve" xmlns:serif="http://www.serif.com/" style="fill-rule:evenodd;clip-rule:evenodd;stroke-linejoin:round;stroke-miterlimit:2;">
    <g transform="matrix(1,0,0,1,-14.774,-15)">
        <path d="M21.299,16.96C15.246,20.65 15,22.018 15,52.013L15,79.125L40.349,78.812C68.306,78.468 69,78.313 69,72.434C69,67.392 66.24,66 56.238,66C45.995,66 41.138,63.918 38.524,58.408C36.209,53.532 36.929,46.786 40.134,43.309C44.25,38.843 47.807,38 62.528,38L76.121,38L75.81,41.75L75.5,45.5L62.166,46C50.458,46.439 48.66,46.737 47.416,48.441C45.627,50.894 45.619,53.097 47.392,55.522C48.56,57.119 50.53,57.518 59.642,58C71.798,58.643 74.883,59.929 77.149,65.299C79.007,69.701 78.735,77.229 76.601,80.486C75.635,81.961 72.967,84.02 70.672,85.062C66.927,86.762 63.855,86.958 40.637,86.978L14.774,87L15.167,93.951C15.488,99.628 16.013,101.393 18.03,103.58C23.221,109.207 19.385,109 118.268,109L209.601,109L228.8,121.448L248,133.896L248,96.084C248,57.47 248.603,49.415 251.821,45.062C256.519,38.707 257.262,38.528 280.32,38.189C291.969,38.018 302.949,38.148 304.721,38.479C308.939,39.266 313.895,43.515 315.772,47.953C316.769,50.312 317.401,56.023 317.656,65L318.041,78.5L327.521,78.786L337,79.072L337,53.004C337,24.295 336.688,22.439 331.059,17.703L327.847,15L144,15L144,87L122.443,87C97.043,87 93.421,86.337 87.46,80.595C82.557,75.872 81.014,71.454 81.006,62.116C80.998,53.174 82.747,48.214 87.635,43.319C92.796,38.15 97.528,36.657 107.2,37.145C120.501,37.817 126.858,44.487 127.79,58.75L128.263,66L109.632,66C89,66 89.409,65.845 92.545,72.454C95.16,77.964 97.318,78.5 116.897,78.5L134.5,78.5L135.028,15L79.764,15.004C26.716,15.007 24.372,15.086 21.299,16.96M206.383,39.402C197.567,43.507 194,50.291 194,62.953C194,69.2 194.48,71.571 196.611,75.847C204.539,91.755 232.98,91.721 241.106,75.793C243.815,70.481 244.647,60.865 242.993,53.97C241.491,47.71 236.397,41.551 230.5,38.866C224.416,36.095 212.937,36.35 206.383,39.402M162.459,39.88C154.133,43.661 149.255,53.843 150.291,65.273C151.05,73.646 154.481,79.784 160.473,83.491C165.232,86.435 165.619,86.5 178.418,86.5L191.5,86.5L191.81,82.75L192.121,79L181.81,78.944C164.201,78.847 160.5,76.109 160.5,63.177C160.5,54.727 162.126,49.582 165.387,47.712C166.551,47.044 172.888,46.275 179.5,46L191.5,45.5L191.81,41.75L192.121,38L179.31,38.022C169.05,38.04 165.695,38.409 162.459,39.88M212.035,45.25C205.325,47.67 201.962,57.255 204.018,68.096C205.262,74.654 206.439,76.658 210.182,78.594C215.003,81.087 226.099,80.195 229.453,77.044C236.384,70.533 235.306,50.278 227.822,46.408C223.766,44.311 216.18,43.754 212.035,45.25M97.321,46.557C94.23,48.136 91,53.166 91,56.401C91,57.788 92.807,58 104.631,58L118.262,58L117.662,54.304C116.72,48.5 113.193,45.701 106.294,45.284C102.33,45.044 99.496,45.446 97.321,46.557M264,46.306C258.537,48.17 258.121,50.649 258.056,81.75L258,109L291.599,109C320.527,109 325.673,108.774 328.619,107.377C333.884,104.878 336.366,100.622 336.832,93.293L337.233,87L308.162,87L307.831,69.25C307.461,49.401 306.944,47.639 301,45.985C299.075,45.449 295.363,45.009 292.75,45.006L288,45L288,87L278,87L278,45L272.75,45.056C269.863,45.087 265.925,45.65 264,46.306" style="fill:rgb(220,12,35);"/>
    </g>
</svg>
