<?xml version="1.0" encoding="UTF-8" standalone="no"?>
<!DOCTYPE svg PUBLIC "-//W3C//DTD SVG 1.1//EN" "http://www.w3.org/Graphics/SVG/1.1/DTD/svg11.dtd">
<svg width="100%" height="100%" viewBox="0 0 271 110" version="1.1" xmlns="http://www.w3.org/2000/svg" xmlns:xlink="http://www.w3.org/1999/xlink" xml:space="preserve" xmlns:serif="http://www.serif.com/" style="fill-rule:evenodd;clip-rule:evenodd;stroke-linejoin:round;stroke-miterlimit:2;">
    <g transform="matrix(1,0,0,1,-29.863,-4.39245)">
        <g transform="matrix(1,0,0,1,-14.774,-15)">
            <g transform="matrix(1,0,0,1,14.774,15)">
                <path d="M29.864,69.365C29.846,68.17 30.042,41.619 30.042,41.619C30.042,29 30.174,22.406 30.862,18.575C32.081,11.796 34.344,9.857 38.851,7.11C40.509,6.098 41.933,5.16 47.719,4.776C52.863,4.433 126.308,4.393 126.308,4.393L126.313,12.393L89.18,12.396C47.293,12.398 45.442,12.46 43.015,13.94C38.236,16.854 38.042,17.934 38.042,41.619L38.042,63.027L58.058,62.78C80.133,62.508 80.681,62.386 80.681,57.743C80.681,53.762 78.502,52.663 70.604,52.663C62.516,52.663 58.681,51.019 56.617,46.668C54.789,42.818 55.357,37.491 57.888,34.746C61.138,31.219 63.947,30.554 75.571,30.554L86.304,30.554L86.058,33.515L85.814,36.476L75.285,36.871C66.04,37.217 64.62,37.453 63.638,38.798C62.225,40.735 62.219,42.475 63.619,44.389C64.541,45.65 66.097,45.965 73.292,46.346C82.89,46.854 85.326,47.869 87.116,52.109C88.583,55.585 88.368,61.53 86.683,64.101C85.92,65.266 83.813,66.892 82.001,67.715C79.044,69.057 76.618,69.212 58.285,69.228L57.733,69.228L57.732,69.223L56.622,69.229L37.863,69.245L37.868,69.324L29.864,69.365ZM132.686,4.392L132.817,4.392C134.057,4.392 285.071,4.392 285.071,4.392C286.956,4.392 288.78,5.058 290.222,6.271L292.758,8.405C297.007,11.98 299.104,14.129 299.897,23.175C300.241,27.103 300.299,56.514 300.299,56.514L292.299,56.591L292.299,42.401C292.299,19.732 292.052,18.266 287.608,14.527L285.071,12.392L139.902,12.392L139.902,69.245L122.881,69.245C102.824,69.245 99.964,68.721 95.257,64.187C91.386,60.458 90.168,56.97 90.161,49.596C90.155,42.535 91.536,38.619 95.396,34.754C99.471,30.672 103.207,29.493 110.844,29.879C121.347,30.409 126.367,35.676 127.103,46.938L127.476,52.663L112.765,52.663C96.473,52.663 96.796,52.541 99.273,57.759C101.337,62.11 103.041,62.533 118.501,62.533L132.401,62.533L132.686,4.392ZM300.299,62.81L300.299,62.985C300.299,63.992 300.15,74.722 300.15,74.722C299.55,84.153 295.886,89.347 289.111,92.562L289.109,92.563C287.612,93.273 285.707,93.93 281.563,94.24C277.603,94.537 236.401,94.617 236.401,94.617L236.336,86.617L256.449,86.617C279.291,86.617 283.355,86.438 285.681,85.335C289.838,83.362 291.798,80.001 292.166,74.214L292.483,69.245L269.528,69.245L269.266,55.229C268.974,39.556 268.566,38.165 263.872,36.859C262.352,36.436 259.421,36.088 257.358,36.086L253.607,36.081L253.607,69.245L245.711,69.245L245.711,36.081L241.566,36.125C239.286,36.15 236.177,36.594 234.657,37.112C230.343,38.584 230.014,40.542 229.963,65.099L230.023,106.275C230.023,109.207 228.419,111.904 225.843,113.304C223.266,114.704 220.131,114.583 217.671,112.988L189.336,94.617C189.336,94.617 54.223,94.629 46.613,93.704C42.491,93.203 40.282,92.315 38.708,91.395C37.038,90.419 35.987,89.315 34.554,87.761C31.941,84.928 30.669,82.805 30.216,75.681L38.233,75.678C38.495,79.424 38.959,80.738 40.434,82.337C44.533,86.78 41.504,86.617 119.584,86.617L191.702,86.617L222.023,106.275L222.023,76.418C222.023,45.928 222.499,39.567 225.04,36.13C228.749,31.112 229.336,30.971 247.543,30.703C256.741,30.568 265.411,30.671 266.811,30.932C270.141,31.553 274.055,34.908 275.537,38.413C276.324,40.275 276.823,44.785 277.024,51.873L277.328,62.533L284.814,62.759L292.299,62.985L292.299,62.815L300.299,62.81ZM189.161,31.661C194.336,29.251 203.4,29.049 208.204,31.238C212.861,33.358 216.883,38.221 218.069,43.164C219.375,48.608 218.718,56.201 216.579,60.396C210.163,72.973 187.705,73 181.445,60.438C179.762,57.062 179.383,55.19 179.383,50.257C179.383,40.259 182.2,34.902 189.161,31.661ZM193.624,36.278C188.326,38.189 185.67,45.758 187.294,54.318C188.276,59.496 189.205,61.079 192.161,62.607C195.968,64.576 204.729,63.872 207.378,61.384C212.85,56.242 211.999,40.249 206.09,37.193C202.887,35.537 196.897,35.097 193.624,36.278ZM154.478,32.038C157.033,30.877 159.682,30.585 167.784,30.571L177.9,30.554L177.654,33.515L177.409,36.476L167.934,36.871C162.713,37.088 157.709,37.695 156.79,38.222C154.215,39.699 152.931,43.762 152.931,50.434C152.931,60.645 155.853,62.807 169.758,62.884L177.9,62.928L177.654,65.889L177.409,68.85L167.079,68.85C156.973,68.85 156.668,68.799 152.91,66.474C148.178,63.547 145.469,58.7 144.87,52.089C144.052,43.064 147.904,35.024 154.478,32.038ZM103.044,37.31C100.603,38.557 98.053,42.529 98.053,45.083C98.053,46.179 99.479,46.346 108.816,46.346L119.579,46.346L119.105,43.428C118.362,38.845 115.577,36.635 110.129,36.305C106.999,36.116 104.761,36.433 103.044,37.31Z" style="fill:rgb(220,12,35);"/>
            </g>
        </g>
    </g>
</svg>
