<?xml version="1.0" encoding="UTF-8" standalone="no"?>
<!DOCTYPE svg PUBLIC "-//W3C//DTD SVG 1.1//EN" "http://www.w3.org/Graphics/SVG/1.1/DTD/svg11.dtd">
<svg width="100%" height="100%" viewBox="0 0 574 259" version="1.1" xmlns="http://www.w3.org/2000/svg" xmlns:xlink="http://www.w3.org/1999/xlink" xml:space="preserve" xmlns:serif="http://www.serif.com/" style="fill-rule:evenodd;clip-rule:evenodd;stroke-linejoin:round;stroke-miterlimit:2;">
    <g transform="matrix(1,0,0,1,-1627.79,-461.139)">
        <g transform="matrix(1,0,0,1,1324.19,0)">
            <g transform="matrix(0.618071,0,0,0.618071,140.666,501.884)">
                <g transform="matrix(1,0,0,1,115.076,-470.861)">
                    <g transform="matrix(189.458,0,0,189.458,143.807,821.046)">
                        <path d="M0.24,-0L0.24,-0.602L0.025,-0.602L0.025,-0.7L0.563,-0.7L0.563,-0.602L0.348,-0.602L0.348,-0L0.24,-0Z" style="fill-rule:nonzero;"/>
                    </g>
                    <g transform="matrix(189.458,0,0,189.458,255.208,821.046)">
                        <path d="M0.076,-0L0.076,-0.7L0.179,-0.7L0.179,-0.423L0.195,-0.423C0.202,-0.436 0.211,-0.448 0.224,-0.46C0.236,-0.472 0.252,-0.482 0.273,-0.49C0.293,-0.497 0.319,-0.501 0.35,-0.501C0.387,-0.501 0.421,-0.493 0.45,-0.476C0.478,-0.459 0.501,-0.436 0.518,-0.406C0.535,-0.375 0.543,-0.339 0.543,-0.296L0.543,-0L0.44,-0L0.44,-0.288C0.44,-0.331 0.429,-0.362 0.408,-0.383C0.387,-0.403 0.357,-0.413 0.32,-0.413C0.277,-0.413 0.243,-0.399 0.218,-0.371C0.192,-0.343 0.179,-0.302 0.179,-0.249L0.179,-0L0.076,-0Z" style="fill-rule:nonzero;"/>
                    </g>
                    <g transform="matrix(189.458,0,0,189.458,371.724,821.046)">
                        <path d="M0.076,-0L0.076,-0.493L0.179,-0.493L0.179,-0L0.076,-0ZM0.128,-0.56C0.108,-0.56 0.091,-0.567 0.078,-0.58C0.064,-0.593 0.057,-0.609 0.057,-0.63C0.057,-0.651 0.064,-0.668 0.078,-0.681C0.091,-0.694 0.108,-0.7 0.128,-0.7C0.149,-0.7 0.166,-0.694 0.179,-0.681C0.192,-0.668 0.199,-0.651 0.199,-0.63C0.199,-0.609 0.192,-0.593 0.179,-0.58C0.166,-0.567 0.149,-0.56 0.128,-0.56Z" style="fill-rule:nonzero;"/>
                    </g>
                    <g transform="matrix(189.458,0,0,189.458,420.225,821.046)">
                        <path d="M0.361,0.014C0.313,0.014 0.276,0.005 0.251,-0.012C0.225,-0.029 0.206,-0.049 0.193,-0.07L0.177,-0.07L0.177,-0L0.076,-0L0.076,-0.7L0.179,-0.7L0.179,-0.426L0.195,-0.426C0.203,-0.439 0.214,-0.452 0.227,-0.465C0.24,-0.477 0.258,-0.487 0.28,-0.495C0.302,-0.503 0.329,-0.507 0.361,-0.507C0.402,-0.507 0.44,-0.497 0.475,-0.477C0.51,-0.457 0.537,-0.428 0.558,-0.39C0.579,-0.352 0.589,-0.307 0.589,-0.254L0.589,-0.239C0.589,-0.186 0.579,-0.14 0.558,-0.102C0.537,-0.065 0.509,-0.036 0.474,-0.016C0.44,0.004 0.402,0.014 0.361,0.014ZM0.331,-0.076C0.376,-0.076 0.412,-0.09 0.442,-0.119C0.47,-0.148 0.485,-0.189 0.485,-0.242L0.485,-0.251C0.485,-0.304 0.471,-0.344 0.442,-0.373C0.413,-0.402 0.376,-0.416 0.331,-0.416C0.287,-0.416 0.251,-0.402 0.222,-0.373C0.193,-0.344 0.178,-0.304 0.178,-0.251L0.178,-0.242C0.178,-0.189 0.193,-0.148 0.222,-0.119C0.251,-0.09 0.287,-0.076 0.331,-0.076Z" style="fill-rule:nonzero;"/>
                    </g>
                    <g transform="matrix(189.458,0,0,189.458,541.668,821.046)">
                        <rect x="0.074" y="-0.303" width="0.296" height="0.094" style="fill-rule:nonzero;"/>
                    </g>
                    <g transform="matrix(189.458,0,0,189.458,621.05,821.046)">
                        <path d="M0.261,-0C0.231,-0 0.207,-0.009 0.19,-0.027C0.172,-0.045 0.163,-0.069 0.163,-0.099L0.163,-0.406L0.027,-0.406L0.027,-0.493L0.163,-0.493L0.163,-0.656L0.266,-0.656L0.266,-0.493L0.413,-0.493L0.413,-0.406L0.266,-0.406L0.266,-0.117C0.266,-0.097 0.275,-0.087 0.294,-0.087L0.397,-0.087L0.397,-0L0.261,-0Z" style="fill-rule:nonzero;"/>
                    </g>
                    <g transform="matrix(189.458,0,0,189.458,707.822,821.046)">
                        <path d="M0.076,-0L0.076,-0.493L0.179,-0.493L0.179,-0L0.076,-0ZM0.128,-0.56C0.108,-0.56 0.091,-0.567 0.078,-0.58C0.064,-0.593 0.057,-0.609 0.057,-0.63C0.057,-0.651 0.064,-0.668 0.078,-0.681C0.091,-0.694 0.108,-0.7 0.128,-0.7C0.149,-0.7 0.166,-0.694 0.179,-0.681C0.192,-0.668 0.199,-0.651 0.199,-0.63C0.199,-0.609 0.192,-0.593 0.179,-0.58C0.166,-0.567 0.149,-0.56 0.128,-0.56Z" style="fill-rule:nonzero;"/>
                    </g>
                    <g transform="matrix(189.458,0,0,189.458,756.323,821.046)">
                        <path d="M0.278,0.014C0.215,0.014 0.163,-0 0.122,-0.028C0.081,-0.056 0.055,-0.098 0.046,-0.155L0.142,-0.178C0.147,-0.151 0.156,-0.129 0.169,-0.113C0.182,-0.097 0.198,-0.086 0.217,-0.079C0.235,-0.072 0.256,-0.069 0.278,-0.069C0.311,-0.069 0.336,-0.075 0.354,-0.088C0.371,-0.101 0.38,-0.117 0.38,-0.137C0.38,-0.157 0.372,-0.172 0.355,-0.181C0.338,-0.19 0.314,-0.198 0.281,-0.204L0.247,-0.21C0.214,-0.216 0.183,-0.225 0.156,-0.236C0.129,-0.247 0.107,-0.263 0.091,-0.283C0.075,-0.303 0.067,-0.329 0.067,-0.36C0.067,-0.407 0.084,-0.443 0.119,-0.469C0.154,-0.494 0.2,-0.507 0.257,-0.507C0.312,-0.507 0.358,-0.495 0.394,-0.469C0.429,-0.445 0.452,-0.411 0.463,-0.368L0.367,-0.341C0.361,-0.371 0.348,-0.392 0.329,-0.405C0.31,-0.417 0.286,-0.423 0.257,-0.423C0.229,-0.423 0.207,-0.418 0.191,-0.407C0.175,-0.397 0.167,-0.383 0.167,-0.364C0.167,-0.344 0.175,-0.329 0.191,-0.32C0.206,-0.311 0.227,-0.304 0.254,-0.299L0.289,-0.293C0.324,-0.287 0.357,-0.279 0.386,-0.268C0.415,-0.257 0.439,-0.242 0.456,-0.222C0.472,-0.202 0.481,-0.175 0.481,-0.142C0.481,-0.093 0.463,-0.054 0.426,-0.027C0.389,0 0.34,0.014 0.278,0.014Z" style="fill-rule:nonzero;"/>
                    </g>
                    <g transform="matrix(189.458,0,0,189.458,855.788,821.046)">
                        <path d="M0.076,-0L0.076,-0.7L0.179,-0.7L0.179,-0.423L0.195,-0.423C0.202,-0.436 0.211,-0.448 0.224,-0.46C0.236,-0.472 0.252,-0.482 0.273,-0.49C0.293,-0.497 0.319,-0.501 0.35,-0.501C0.387,-0.501 0.421,-0.493 0.45,-0.476C0.478,-0.459 0.501,-0.436 0.518,-0.406C0.535,-0.375 0.543,-0.339 0.543,-0.296L0.543,-0L0.44,-0L0.44,-0.288C0.44,-0.331 0.429,-0.362 0.408,-0.383C0.387,-0.403 0.357,-0.413 0.32,-0.413C0.277,-0.413 0.243,-0.399 0.218,-0.371C0.192,-0.343 0.179,-0.302 0.179,-0.249L0.179,-0L0.076,-0Z" style="fill-rule:nonzero;"/>
                    </g>
                    <g transform="matrix(189.458,0,0,189.458,972.305,821.046)">
                        <path d="M0.229,0.014C0.194,0.014 0.162,0.008 0.135,-0.004C0.107,-0.016 0.085,-0.034 0.069,-0.057C0.052,-0.08 0.044,-0.109 0.044,-0.142C0.044,-0.176 0.052,-0.204 0.069,-0.227C0.085,-0.249 0.107,-0.266 0.136,-0.277C0.164,-0.288 0.196,-0.294 0.232,-0.294L0.382,-0.294L0.382,-0.326C0.382,-0.355 0.373,-0.378 0.356,-0.395C0.339,-0.412 0.312,-0.421 0.276,-0.421C0.241,-0.421 0.214,-0.413 0.195,-0.396C0.176,-0.379 0.164,-0.358 0.158,-0.331L0.062,-0.362C0.07,-0.389 0.083,-0.413 0.101,-0.435C0.118,-0.456 0.142,-0.474 0.171,-0.487C0.2,-0.5 0.236,-0.507 0.277,-0.507C0.341,-0.507 0.391,-0.491 0.428,-0.458C0.465,-0.425 0.483,-0.379 0.483,-0.319L0.483,-0.116C0.483,-0.096 0.492,-0.086 0.511,-0.086L0.553,-0.086L0.553,-0L0.476,-0C0.453,-0 0.434,-0.006 0.419,-0.018C0.404,-0.03 0.397,-0.046 0.397,-0.067L0.397,-0.07L0.382,-0.07C0.377,-0.06 0.369,-0.048 0.358,-0.035C0.347,-0.022 0.332,-0.01 0.311,-0.001C0.29,0.009 0.263,0.014 0.229,0.014ZM0.244,-0.071C0.285,-0.071 0.319,-0.083 0.344,-0.107C0.369,-0.13 0.382,-0.163 0.382,-0.204L0.382,-0.214L0.238,-0.214C0.211,-0.214 0.189,-0.208 0.172,-0.197C0.155,-0.185 0.147,-0.168 0.147,-0.145C0.147,-0.122 0.156,-0.104 0.173,-0.091C0.19,-0.078 0.214,-0.071 0.244,-0.071Z" style="fill-rule:nonzero;"/>
                    </g>
                </g>
                <g transform="matrix(0.393456,0,0,0.393456,474.06,-113.132)">
                    <g transform="matrix(0.702876,0,0,0.702876,346.689,161.573)">
                        <g transform="matrix(4.16667,0,0,4.16667,-190,-142.5)">
                            <path d="M180,45L60,45L60,215C60,220.525 64.475,225 70,225L170,225C175.525,225 180,220.525 180,215L180,45Z" style="fill:url(#_Linear1);fill-rule:nonzero;"/>
                        </g>
                        <g>
                            <g transform="matrix(4.16667,0,0,4.16667,-190,-142.5)">
                                <path d="M180,45L60,45L60,30C60,24.475 64.475,20 70,20L170,20C175.525,20 180,24.475 180,30L180,45Z" style="fill:rgb(125,239,255);fill-rule:nonzero;"/>
                            </g>
                            <g>
                                <g transform="matrix(4.16667,0,0,4.16667,-190,-142.5)">
                                    <circle cx="100" cy="32.5" r="3.75" style="fill:rgb(10,59,97);"/>
                                </g>
                                <g transform="matrix(4.16667,0,0,4.16667,-190,-142.5)">
                                    <path d="M137.5,28.75L112.5,28.75C110.43,28.75 108.75,30.43 108.75,32.5C108.75,34.57 110.43,36.25 112.5,36.25L137.5,36.25C139.57,36.25 141.25,34.57 141.25,32.5C141.25,30.43 139.57,28.75 137.5,28.75Z" style="fill:rgb(10,59,97);fill-rule:nonzero;"/>
                                </g>
                            </g>
                        </g>
                    </g>
                    <g transform="matrix(-0.702876,0,0,0.702876,782.472,161.573)">
                        <g transform="matrix(1.42273,0,0,1.42273,-493.243,-229.874)">
                            <path d="M409.017,486.067L257.072,486.067C240.92,486.067 227.785,472.932 227.785,456.781L227.785,354.278C227.785,338.127 240.92,324.992 257.072,324.992L564.58,324.992C580.732,324.992 593.867,338.127 593.867,354.278L593.867,456.781C593.867,472.932 580.732,486.067 564.58,486.067L501.937,486.067L501.937,556.937C501.937,565.076 492.099,569.15 486.344,563.395L409.017,486.067Z" style="fill:url(#_Linear2);"/>
                        </g>
                        <g>
                            <g transform="matrix(4.16667,0,0,4.16667,-190,-142.5)">
                                <rect x="15" y="100" width="105" height="35" style="fill:url(#_Linear3);"/>
                            </g>
                            <g>
                                <g transform="matrix(4.16667,0,0,4.16667,-190,-142.5)">
                                    <circle cx="37.5" cy="117.5" r="7.5" style="fill:rgb(10,59,97);"/>
                                </g>
                                <g transform="matrix(4.16667,0,0,4.16667,-190,-142.5)">
                                    <circle cx="67.5" cy="117.5" r="7.5" style="fill:rgb(10,59,97);"/>
                                </g>
                                <g transform="matrix(4.16667,0,0,4.16667,-190,-142.5)">
                                    <circle cx="97.5" cy="117.5" r="7.5" style="fill:rgb(10,59,97);"/>
                                </g>
                            </g>
                        </g>
                    </g>
                </g>
            </g>
        </g>
    </g>
    <defs>
        <linearGradient id="_Linear1" x1="0" y1="0" x2="1" y2="0" gradientUnits="userSpaceOnUse" gradientTransform="matrix(124.245,233.67,-233.67,124.245,73.18,43.195)"><stop offset="0" style="stop-color:rgb(20,199,255);stop-opacity:1"/><stop offset="1" style="stop-color:rgb(0,145,255);stop-opacity:1"/></linearGradient>
        <linearGradient id="_Linear2" x1="0" y1="0" x2="1" y2="0" gradientUnits="userSpaceOnUse" gradientTransform="matrix(136.173,266.275,-266.275,136.173,361.6,296.368)"><stop offset="0" style="stop-color:rgb(0,119,210);stop-opacity:1"/><stop offset="1" style="stop-color:rgb(10,59,97);stop-opacity:1"/></linearGradient>
        <linearGradient id="_Linear3" x1="0" y1="0" x2="1" y2="0" gradientUnits="userSpaceOnUse" gradientTransform="matrix(33.97,69.645,-69.645,33.97,58.445,98.935)"><stop offset="0" style="stop-color:rgb(252,252,252);stop-opacity:1"/><stop offset="0.5" style="stop-color:rgb(244,244,244);stop-opacity:1"/><stop offset="0.87" style="stop-color:rgb(232,232,232);stop-opacity:1"/><stop offset="1" style="stop-color:rgb(232,232,232);stop-opacity:1"/></linearGradient>
    </defs>
</svg>
