<?xml version="1.0" encoding="UTF-8" standalone="no"?>
<!DOCTYPE svg PUBLIC "-//W3C//DTD SVG 1.1//EN" "http://www.w3.org/Graphics/SVG/1.1/DTD/svg11.dtd">
<svg width="100%" height="100%" viewBox="0 0 426 308" version="1.1" xmlns="http://www.w3.org/2000/svg" xmlns:xlink="http://www.w3.org/1999/xlink" xml:space="preserve" xmlns:serif="http://www.serif.com/" style="fill-rule:evenodd;clip-rule:evenodd;stroke-linejoin:round;stroke-miterlimit:2;">
    <g transform="matrix(1,0,0,1,-180.23,-170.986)">
        <g>
            <path d="M469.514,443.537C434.666,443.537 403.359,425.325 381.77,396.385L381.77,413.518C384.879,449.743 424.867,478.833 469.515,478.833C514.155,478.833 554.498,450.471 557.257,413.523L557.257,396.384C535.666,425.322 504.359,443.537 469.514,443.537Z" style="fill:rgb(12,49,131);fill-rule:nonzero;"/>
            <path d="M545.372,194.076C522.296,194.076 501.562,205.991 487.267,224.923L487.267,213.715C489.327,190.018 515.806,170.986 545.373,170.986C574.934,170.986 601.65,189.541 603.477,213.711L603.477,224.922C589.18,205.991 568.447,194.076 545.372,194.076Z" style="fill:rgb(12,49,131);fill-rule:nonzero;"/>
            <circle cx="297.229" cy="212.708" r="18.851" style="fill:rgb(12,49,131);"/>
            <path d="M543.825,374.348C526.662,374.358 511.075,366.965 500.062,355.43C489.014,343.905 482.223,328.046 482.223,310.74L482.22,300.557C482.223,283.25 489.014,267.394 500.062,255.866C511.075,244.33 526.662,236.941 543.825,236.948C560.984,236.942 576.57,244.331 587.586,255.866C598.634,267.395 605.424,283.251 605.424,300.557L605.424,310.74L605.427,310.74C605.424,328.047 598.634,343.905 587.586,355.43C576.577,366.955 561.007,374.348 543.863,374.348L543.825,374.348ZM523.126,277.954C517.635,283.699 514.154,291.66 514.154,300.556L514.158,310.739C514.154,319.635 517.635,327.598 523.126,333.341C528.658,339.075 535.887,342.404 543.825,342.414C551.763,342.404 558.991,339.075 564.523,333.341C570.014,327.599 573.491,319.635 573.491,310.739L573.491,300.556C573.491,291.66 570.014,283.699 564.523,277.954C558.991,272.219 551.762,268.891 543.825,268.88C535.887,268.891 528.658,272.219 523.126,277.954Z" style="fill:rgb(12,49,131);fill-rule:nonzero;"/>
            <path d="M256.018,342.687C250.695,346.048 243.273,346.958 237.589,347.454C237.589,347.454 220.448,348.855 215.603,340.905C213.469,338.265 212.166,333.253 212.163,329.793L212.163,272.1C249.274,272.166 257.29,273.424 257.202,243.74L212.35,243.74L212.35,214.317L212.347,214.317C212.005,214.307 211.674,214.272 211.329,214.272C194.154,214.272 180.23,228.154 180.23,243.205L180.23,329.792C180.289,354.402 200.171,374.282 224.783,374.348L228.712,374.348C254.381,374.017 256.018,359.49 256.018,342.687Z" style="fill:rgb(12,49,131);fill-rule:nonzero;"/>
            <path d="M338.268,348.411C338.268,348.411 320.033,351.458 315.187,343.504C313.053,340.868 311.75,334.171 311.747,330.711L311.747,262.162C310.369,252.713 301.124,247.25 280.834,247.429C280.493,247.432 280.158,247.453 279.82,247.46L279.815,247.46L279.815,337.432C279.874,362.046 296.903,373.417 313.906,374.346L320.672,374.336C335.766,373.633 338.363,364.24 338.268,348.411Z" style="fill:rgb(12,49,131);fill-rule:nonzero;"/>
            <path d="M458.367,307.965C453.367,305.634 446.199,304.41 436.465,304.496C436.123,304.499 435.788,304.522 435.45,304.529L435.445,304.529L435.445,343.541C433.103,347.03 425.443,346.476 419.918,346.476C407.764,346.476 396.926,341.411 389.839,333.499C384.478,327.512 381.261,319.898 381.261,311.603C381.261,311.422 381.274,311.245 381.277,311.065C381.276,310.953 381.261,310.848 381.261,310.736L381.261,300.557C381.261,296.962 381.893,293.528 383.008,290.309C384.591,285.735 387.18,281.61 390.581,278.198C392.421,276.364 394.466,274.422 396.677,272.621C399.661,270.191 402.951,268.036 406.451,266.752C407.134,266.502 407.82,266.273 408.517,266.095C408.535,266.089 408.555,266.084 408.573,266.078C414.142,264.461 420.323,263.557 426.84,263.557C439.479,263.557 450.872,266.949 458.924,272.383C461.097,273.797 463.134,275.351 464.97,277.067L464.97,267.002C464.133,251.871 454.214,241.809 441.629,238.323C438.401,237.429 428.286,236.946 424.815,236.946L416.298,236.946C381.206,237.009 349.39,265.464 349.327,300.557L349.327,310.736C349.39,345.829 377.844,374.286 412.935,374.348L424.939,374.348C427.381,374.348 429.766,374.138 432.084,373.757C437.313,372.898 445.54,371.118 449.815,368.607C460.395,362.393 467.657,353.462 467.378,336.253L467.378,319.229C466.661,314.313 463.79,310.489 458.367,307.965Z" style="fill:rgb(12,49,131);fill-rule:nonzero;"/>
        </g>
    </g>
</svg>
