<?xml version="1.0" encoding="UTF-8" standalone="no"?>
<!DOCTYPE svg PUBLIC "-//W3C//DTD SVG 1.1//EN" "http://www.w3.org/Graphics/SVG/1.1/DTD/svg11.dtd">
<svg width="100%" height="100%" viewBox="0 0 709 239" version="1.1" xmlns="http://www.w3.org/2000/svg" xmlns:xlink="http://www.w3.org/1999/xlink" xml:space="preserve" xmlns:serif="http://www.serif.com/" style="fill-rule:evenodd;clip-rule:evenodd;stroke-linejoin:round;stroke-miterlimit:2;">
    <g transform="matrix(1,0,0,1,-236.93,-471.259)">
        <g transform="matrix(1,0,0,1,0.71,0)">
            <g id="Logo" transform="matrix(1,0,0,1,1.13687e-13,349.95)">
                <path d="M247.241,270.21C240.045,260.739 236.22,250.819 236.22,240.601C236.22,174.762 394.991,121.309 590.551,121.309C786.112,121.309 944.882,174.762 944.882,240.601C944.882,306.439 786.112,359.892 590.551,359.892C585.171,359.892 580.306,359.806 575.93,359.662C574.972,359.603 574.229,358.801 574.243,357.841C574.257,356.881 575.023,356.101 575.983,356.071C581.194,355.936 586.146,355.785 590.028,355.612C731.854,349.295 840.496,314.369 840.496,272.286C840.496,225.735 707.561,187.941 543.824,187.941C382.526,187.941 251.12,224.617 247.241,270.21Z" style="fill:url(#_Linear1);"/>
                <g id="text" transform="matrix(0.204256,0,0,0.204256,219.138,474.483)">
                    <g>
                        <g transform="matrix(4.89583,0,0,4.89583,-1152,-2303.4)">
                            <path d="M371.346,236.913L369.886,268.848L372.349,268.848C373.686,261.301 376.472,254.297 380.536,250.57C383.731,247.641 387.771,246.401 392.69,247.753C397.968,249.756 399.639,255.944 398.627,265.654C364.851,268.506 357.485,311.741 373.69,324.789C375.535,326.275 377.838,327.074 380.207,327.05C389.472,327.017 394.865,321.686 398.944,312.836C399.267,318.183 400.73,321.853 402.936,324.431L423.845,324.431L423.845,319.976C423.845,319.976 422.547,319.294 421.19,318.58C419.316,317.594 418.143,315.651 418.143,313.533L418.143,253.053C418.143,242.386 409.714,233.624 399.054,233.21C398.593,233.192 398.146,233.175 397.716,233.158C394.203,233.022 390.707,233.71 387.508,235.166C385.221,236.208 382.505,237.444 380.241,238.474C377.394,239.771 374.05,239.28 371.696,237.22C371.478,237.029 371.346,236.913 371.346,236.913ZM398.333,275.9C398.844,285.721 396.367,309.869 389.913,308.786C380.552,307.216 386.686,279.298 398.333,275.9Z" style="fill:rgb(236,27,35);"/>
                        </g>
                        <g transform="matrix(4.89583,0,0,4.89583,-547.455,-2303.4)">
                            <path d="M371.346,236.913L369.886,268.848L372.349,268.848C373.686,261.301 376.472,254.297 380.536,250.57C383.731,247.641 387.771,246.401 392.69,247.753C397.968,249.756 399.639,255.944 398.627,265.654C364.851,268.506 357.485,311.741 373.69,324.789C375.535,326.275 377.838,327.074 380.207,327.05C389.472,327.017 394.865,321.686 398.944,312.836C399.267,318.183 400.73,321.853 402.936,324.431L423.845,324.431L423.845,319.976C423.845,319.976 422.547,319.294 421.19,318.58C419.316,317.594 418.143,315.651 418.143,313.533L418.143,253.053C418.143,242.386 409.714,233.624 399.054,233.21C398.593,233.192 398.146,233.175 397.716,233.158C394.203,233.022 390.707,233.71 387.508,235.166C385.221,236.208 382.505,237.444 380.241,238.474C377.394,239.771 374.05,239.28 371.696,237.22C371.478,237.029 371.346,236.913 371.346,236.913ZM398.333,275.9C398.844,285.721 396.367,309.869 389.913,308.786C380.552,307.216 386.686,279.298 398.333,275.9Z" style="fill:rgb(236,27,35);"/>
                        </g>
                        <g transform="matrix(4.89583,0,0,4.89583,-1152,-2303.4)">
                            <path d="M584.956,323.863L615.523,323.863L615.523,319.572C612.758,319.572 610.517,317.33 610.517,314.566L610.517,268.36C610.517,262.198 612.966,257.054 617.244,252.965C617.827,252.42 618.628,252.296 619.42,252.395C620.933,252.584 623.059,257.267 623.105,261.65C623.235,273.993 623.105,302.461 623.105,314.28C623.105,315.683 622.548,317.029 621.555,318.022C620.563,319.014 619.217,319.572 617.813,319.572L617.812,319.572L617.812,323.863L646.982,323.863L646.982,319.572C644.641,319.572 642.676,317.965 642.128,315.795L642.128,249.912C641.573,244.716 640.236,240.355 638.109,237.105C636.505,234.722 634.008,233.085 631.183,232.564C628.357,232.043 625.441,232.681 623.092,234.335C618.265,237.602 613.231,244.042 609.779,250.359C609.721,250.468 609.596,250.523 609.477,250.493C609.357,250.463 609.273,250.356 609.273,250.232L609.273,249.912C608.717,244.716 607.381,240.355 605.254,237.105C603.649,234.722 601.153,233.085 598.327,232.564C595.502,232.043 592.585,232.681 590.236,234.335C584.925,237.93 580.662,243.739 577.232,250.627C577.232,250.627 576.809,242.823 576.514,237.365C576.445,236.1 575.819,234.93 574.805,234.169C573.791,233.409 572.493,233.137 571.259,233.426C565.399,234.777 559.253,235.693 552.63,235.894L552.63,240.043L552.631,240.043C554.072,240.043 555.455,240.615 556.474,241.634C557.493,242.653 558.065,244.035 558.065,245.477L558.065,314.852C558.065,316.103 557.568,317.304 556.683,318.189C555.798,319.074 554.597,319.572 553.345,319.572L553.345,323.863L582.668,323.863L582.667,319.572C579.903,319.572 577.661,317.33 577.661,314.566L577.661,268.36C577.661,262.198 580.111,257.054 584.389,252.965C584.971,252.42 585.773,252.296 586.565,252.395C588.078,252.584 590.204,257.267 590.25,261.65C590.38,273.993 590.25,302.461 590.25,314.28C590.25,315.683 589.692,317.029 588.7,318.022C587.708,319.014 586.362,319.572 584.958,319.572L584.956,319.572L584.956,323.863Z" style="fill:rgb(236,27,35);"/>
                        </g>
                        <g transform="matrix(4.89583,0,0,4.89583,-1152,-2303.4)">
                            <path d="M437.393,233.036L433.686,264.482L436.501,264.55C436.501,264.55 437.585,260.715 438.716,256.715C440.211,251.429 445.012,247.762 450.505,247.709C453.274,247.682 455.588,247.66 455.588,247.66L428.946,324.335L471.851,324.335C473.526,324.335 474.883,325.692 474.883,327.367L477.08,327.367L482.229,292.695L479.277,292.695C479.277,292.695 478.075,296.853 476.762,301.395C474.795,308.198 468.567,312.88 461.486,312.88L454.217,312.88L481.268,235.571L441.653,235.571C439.876,235.571 438.241,234.598 437.393,233.036Z" style="fill:rgb(236,27,35);"/>
                        </g>
                    </g>
                    <g>
                        <g transform="matrix(4.89583,0,0,4.89583,-1152,-2303.4)">
                            <path d="M738.387,216.08L731.656,229.76L739.182,229.76C741.463,229.76 743.597,230.89 744.878,232.778C746.16,234.665 746.423,237.065 745.581,239.185C737.985,258.314 721.475,299.891 721.475,299.891L696.791,238.118L675.778,238.118C675.778,238.118 701.365,300.789 710.458,323.06C710.985,324.35 712.238,325.194 713.631,325.197C715.024,325.201 716.281,324.362 716.814,323.075C724.848,303.659 745.948,252.662 755.833,228.771C757.005,225.938 756.686,222.707 754.983,220.159C753.279,217.61 750.416,216.08 747.35,216.08L738.387,216.08Z" style="fill:rgb(0,90,171);"/>
                        </g>
                        <g transform="matrix(4.89583,0,0,4.89583,-1152,-2303.4)">
                            <path d="M718.227,229.76L724.958,216.08L668.173,216.08L668.173,204.684L625.458,227.22L625.458,229.975L650.005,229.975L650.005,301.507C650.005,307.45 652.366,313.149 656.569,317.351C660.771,321.554 666.47,323.915 672.413,323.915L677.779,323.915C689.56,321.952 696.221,319.313 698.842,316.141L696.406,311.616C696.406,311.616 693.544,312.221 689.645,313.045C684.417,314.149 678.97,312.836 674.82,309.471C670.67,306.106 668.26,301.049 668.26,295.706L668.26,229.76L718.227,229.76Z" style="fill:rgb(0,90,171);"/>
                        </g>
                    </g>
                </g>
            </g>
        </g>
    </g>
    <defs>
        <linearGradient id="_Linear1" x1="0" y1="0" x2="1" y2="0" gradientUnits="userSpaceOnUse" gradientTransform="matrix(608.398,42.8547,-42.8547,608.398,317.078,192.894)"><stop offset="0" style="stop-color:rgb(0,114,188);stop-opacity:1"/><stop offset="1" style="stop-color:rgb(42,52,148);stop-opacity:1"/></linearGradient>
    </defs>
</svg>
