<?xml version="1.0" encoding="UTF-8" standalone="no"?>
<!DOCTYPE svg PUBLIC "-//W3C//DTD SVG 1.1//EN" "http://www.w3.org/Graphics/SVG/1.1/DTD/svg11.dtd">
<svg width="100%" height="100%" viewBox="0 0 709 405" version="1.1" xmlns="http://www.w3.org/2000/svg" xmlns:xlink="http://www.w3.org/1999/xlink" xml:space="preserve" xmlns:serif="http://www.serif.com/" style="fill-rule:evenodd;clip-rule:evenodd;stroke-linejoin:round;stroke-miterlimit:2;">
    <g transform="matrix(1,0,0,1,-236.22,-388.294)">
        <g transform="matrix(1.8948,0,0,1.8948,211.603,323.594)">
            <path d="M33.256,34.629C33.023,34.862 32.568,35.053 32.246,35.053C31.924,35.053 31.661,35.18 31.661,35.336C31.661,35.491 31.088,35.618 30.389,35.618C29.446,35.618 29.117,35.728 29.117,36.042C29.117,36.306 28.85,36.466 28.41,36.466C28.021,36.466 27.703,36.594 27.703,36.749C27.703,36.905 27.385,37.032 26.996,37.032C26.608,37.032 26.29,37.159 26.29,37.314C26.29,37.47 26.031,37.597 25.716,37.597C25.4,37.597 25.068,37.788 24.979,38.021C24.889,38.254 24.575,38.445 24.281,38.445C23.986,38.445 23.746,38.572 23.746,38.728C23.746,38.883 23.555,39.011 23.322,39.011C23.088,39.011 22.898,39.138 22.898,39.293C22.898,39.449 22.703,39.576 22.465,39.576C22.227,39.576 21.959,39.767 21.869,40C21.78,40.233 21.587,40.424 21.441,40.424C21.08,40.424 19.788,41.74 19.788,42.107C19.788,42.27 19.652,42.403 19.485,42.403C19.041,42.403 18.535,42.986 18.076,44.028C17.853,44.534 17.511,44.947 17.316,44.947C17.121,44.947 16.961,45.138 16.961,45.371C16.961,45.604 16.834,45.795 16.678,45.795C16.523,45.795 16.396,46.036 16.396,46.33C16.396,46.624 16.205,46.939 15.972,47.028C15.739,47.118 15.548,47.449 15.548,47.765C15.548,48.081 15.42,48.339 15.265,48.339C15.11,48.339 14.982,48.657 14.982,49.046C14.982,49.435 14.855,49.753 14.7,49.753C14.544,49.753 14.417,50.198 14.417,50.742C14.417,51.433 14.289,51.731 13.993,51.731C13.698,51.731 13.569,52.028 13.569,52.704C13.569,53.239 13.442,53.756 13.286,53.852C12.894,54.094 12.894,228.592 13.286,228.834C13.442,228.93 13.569,229.446 13.569,229.981C13.569,230.658 13.698,230.954 13.993,230.954C14.289,230.954 14.417,231.252 14.417,231.943C14.417,232.488 14.544,232.933 14.7,232.933C14.855,232.933 14.982,233.251 14.982,233.64C14.982,234.028 15.11,234.346 15.265,234.346C15.42,234.346 15.548,234.605 15.548,234.921C15.548,235.236 15.739,235.568 15.972,235.657C16.205,235.747 16.396,236.061 16.396,236.355C16.396,236.65 16.523,236.89 16.678,236.89C16.834,236.89 16.961,237.081 16.961,237.314C16.961,237.548 17.152,237.739 17.385,237.739C17.621,237.739 17.809,237.99 17.809,238.304C17.809,238.615 17.936,238.869 18.092,238.869C18.247,238.869 18.375,239.006 18.375,239.172C18.375,239.564 19.094,240.283 19.485,240.283C19.652,240.283 19.788,240.416 19.788,240.578C19.788,240.962 21.088,242.261 21.471,242.261C21.634,242.261 21.767,242.452 21.767,242.686C21.767,242.921 22.018,243.11 22.332,243.11C22.643,243.11 22.898,243.237 22.898,243.392C22.898,243.548 23.088,243.675 23.322,243.675C23.555,243.675 23.746,243.802 23.746,243.958C23.746,244.113 23.93,244.24 24.155,244.24C24.38,244.24 24.908,244.558 25.327,244.947C25.77,245.358 26.428,245.654 26.896,245.654C27.34,245.654 27.703,245.781 27.703,245.936C27.703,246.092 28.021,246.219 28.41,246.219C28.85,246.219 29.117,246.379 29.117,246.643C29.117,246.939 29.415,247.067 30.106,247.067C30.65,247.067 31.095,247.194 31.095,247.35C31.095,247.538 87.585,247.633 200,247.633C312.415,247.633 368.905,247.538 368.905,247.35C368.905,247.194 369.35,247.067 369.894,247.067C370.585,247.067 370.883,246.939 370.883,246.643C370.883,246.347 371.182,246.219 371.873,246.219C372.417,246.219 372.862,246.092 372.862,245.936C372.862,245.781 373.134,245.654 373.466,245.654C373.798,245.654 374.364,245.336 374.724,244.947C375.085,244.558 375.576,244.24 375.817,244.24C376.058,244.24 376.254,244.113 376.254,243.958C376.254,243.802 376.445,243.675 376.678,243.675C376.912,243.675 377.102,243.548 377.102,243.392C377.102,243.237 377.357,243.11 377.668,243.11C377.982,243.11 378.233,242.921 378.233,242.686C378.233,242.452 378.366,242.261 378.529,242.261C378.912,242.261 380.212,240.962 380.212,240.578C380.212,240.416 380.348,240.283 380.515,240.283C380.906,240.283 381.625,239.564 381.625,239.172C381.625,239.006 381.753,238.869 381.908,238.869C382.064,238.869 382.191,238.615 382.191,238.304C382.191,237.99 382.379,237.739 382.615,237.739C382.848,237.739 383.039,237.548 383.039,237.314C383.039,237.081 383.166,236.89 383.322,236.89C383.477,236.89 383.604,236.65 383.604,236.355C383.604,236.061 383.795,235.747 384.028,235.657C384.261,235.568 384.452,235.236 384.452,234.921C384.452,234.605 384.58,234.346 384.735,234.346C384.89,234.346 385.018,234.028 385.018,233.64C385.018,233.251 385.145,232.933 385.3,232.933C385.456,232.933 385.583,232.669 385.583,232.347C385.583,232.025 385.774,231.571 386.007,231.338C386.24,231.104 386.431,230.478 386.431,229.944C386.431,229.411 386.558,228.975 386.714,228.975C386.902,228.975 386.996,199.576 386.996,141.343C386.996,83.11 386.902,53.71 386.714,53.71C386.558,53.71 386.431,53.274 386.431,52.741C386.431,52.208 386.24,51.581 386.007,51.348C385.774,51.115 385.583,50.66 385.583,50.338C385.583,50.016 385.456,49.753 385.3,49.753C385.145,49.753 385.018,49.435 385.018,49.046C385.018,48.657 384.89,48.339 384.735,48.339C384.58,48.339 384.452,48.081 384.452,47.765C384.452,47.449 384.261,47.118 384.028,47.028C383.795,46.939 383.604,46.624 383.604,46.33C383.604,46.036 383.477,45.795 383.322,45.795C383.166,45.795 383.039,45.604 383.039,45.371C383.039,45.138 382.848,44.947 382.615,44.947C382.379,44.947 382.191,44.696 382.191,44.382C382.191,44.071 382.064,43.816 381.908,43.816C381.753,43.816 381.625,43.68 381.625,43.513C381.625,43.122 380.906,42.403 380.515,42.403C380.348,42.403 380.212,42.27 380.212,42.107C380.212,41.724 378.912,40.424 378.529,40.424C378.366,40.424 378.233,40.233 378.233,40C378.233,39.764 377.982,39.576 377.668,39.576C377.357,39.576 377.102,39.449 377.102,39.293C377.102,39.138 376.912,39.011 376.678,39.011C376.445,39.011 376.254,38.883 376.254,38.728C376.254,38.572 376.014,38.445 375.719,38.445C375.425,38.445 375.111,38.254 375.021,38.021C374.932,37.788 374.6,37.597 374.284,37.597C373.969,37.597 373.71,37.47 373.71,37.314C373.71,37.159 373.392,37.032 373.004,37.032C372.615,37.032 372.297,36.905 372.297,36.749C372.297,36.594 371.979,36.466 371.59,36.466C371.15,36.466 370.883,36.306 370.883,36.042C370.883,35.728 370.554,35.618 369.611,35.618C368.912,35.618 368.339,35.491 368.339,35.336C368.339,35.18 368.117,35.049 367.845,35.044C367.572,35.039 367.103,34.848 366.801,34.62C365.958,33.982 33.894,33.991 33.256,34.629" style="fill:rgb(251,251,251);"/>
            <g>
                <g>
                    <path id="path0" d="M27.609,182.521C27.117,183.013 27.429,184.53 28.057,184.698C28.891,184.922 91.974,184.928 92.556,184.705C93.01,184.531 93.144,183.593 92.832,182.779C92.653,182.313 28.073,182.056 27.609,182.521M307.353,182.684C306.995,183.139 306.994,184.069 307.352,184.523C307.68,184.938 371.595,185.044 372.247,184.63C372.472,184.488 372.585,184.01 372.53,183.433L372.438,182.473L340.036,182.402C314.324,182.345 307.575,182.403 307.353,182.684" style="fill:rgb(27,55,127);"/>
                    <g>
                        <path id="path01" serif:id="path0" d="M98.714,211.223C97.601,212.336 98.612,213.145 101.117,213.145C102.574,213.145 103.183,213.249 103.19,213.498C103.196,213.693 103.195,216.65 103.189,220.071C103.177,227.158 103.151,227.063 105.045,226.943L106.431,226.855L106.494,220.353C106.529,216.777 106.561,213.693 106.565,213.498C106.57,213.246 107.216,213.145 108.829,213.145C111.233,213.145 112.061,212.471 111.092,211.304C110.632,210.749 99.262,210.675 98.714,211.223M112.651,211.504C112.563,211.862 112.527,215.463 112.571,219.505L112.65,226.855L113.986,226.941L115.321,227.027L115.399,222.57L115.477,218.114L116.438,217.467C119.191,215.612 120.141,216.93 120.141,222.602L120.141,226.996L121.357,226.996C123.119,226.996 123.125,226.976 122.968,221.787L122.827,217.112L121.903,216.188C120.695,214.982 117.99,214.834 116.633,215.901C115.422,216.854 115.363,216.762 115.275,213.781L115.194,211.025L114.002,210.938C112.957,210.862 112.791,210.932 112.651,211.504M146.926,211.047C146.809,211.164 146.714,214.808 146.714,219.143L146.714,227.026L148.198,226.941L149.682,226.855L149.823,223.463L149.965,220.071L151.954,219.929C157.87,219.509 160.262,214.054 155.602,211.61C154.444,211.002 147.422,210.547 146.926,211.047M200.895,211.072C200.792,211.176 200.707,214.801 200.707,219.128L200.707,226.996L201.814,226.996C203.945,226.996 203.816,227.504 203.816,219.108C203.816,213.616 203.724,211.47 203.477,211.223C203.118,210.864 201.214,210.753 200.895,211.072M220.925,211.156C220.794,211.368 220.042,214.549 219.569,216.895C219.16,218.921 222.945,213.753 223.506,211.519C223.676,210.84 221.325,210.509 220.925,211.156M242.716,211.331C242.446,212.033 242.524,226.244 242.799,226.679C243.326,227.51 251.329,226.98 252.573,226.031C255.47,223.822 255.386,220.282 252.403,218.878L251.247,218.334L252.096,217.62C254.698,215.43 253.923,212.097 250.601,211.194C248.731,210.686 242.925,210.786 242.716,211.331M300.106,211.316C300.009,211.57 299.929,212.785 299.929,214.016C299.929,215.247 299.877,216.254 299.814,216.254C299.751,216.254 299.04,215.913 298.236,215.495C292.716,212.631 288.491,222.719 293.584,226.603C294.843,227.563 297.341,227.692 298.608,226.861C299.259,226.435 299.497,226.407 300.035,226.694C300.389,226.884 301.115,226.998 301.647,226.947L302.615,226.855L302.615,211.025L301.449,210.94C300.578,210.876 300.239,210.971 300.106,211.316M249.147,213.178C251.937,214.449 250.4,218.103 247.162,217.896L245.795,217.809L245.709,215.98C245.562,212.846 246.586,212.011 249.147,213.178M153.969,214.162C155.608,216.209 153.738,219.018 150.917,218.748L149.965,218.657L149.882,216.278C149.77,213.061 149.778,213.048 151.714,213.208C153.056,213.32 153.418,213.472 153.969,214.162M129.766,215.172C125.454,216.41 124.033,221.926 127.09,225.559C129.282,228.164 134.369,228.124 136.381,225.486C137.571,223.926 137.025,223.172 135.715,224.566C133.87,226.53 130.185,225.902 129.009,223.424C128.128,221.569 128.265,221.5 133.148,221.343L137.525,221.201L137.431,220.071C137.118,216.323 133.596,214.073 129.766,215.172M162.745,215.233C159.303,216.301 157.554,220.525 159.128,223.973C161.022,228.125 167.385,228.812 169.8,225.126C170.533,224.007 169.839,223.566 168.836,224.513C166.956,226.286 163.351,225.899 162.326,223.814C161.215,221.554 161.507,221.377 166.521,221.28L170.601,221.201L170.547,219.998C170.384,216.339 166.609,214.033 162.745,215.233M176.907,215.251C170.086,217.159 171.34,227.378 178.396,227.382C185.084,227.386 187.053,217.095 180.683,215.427C178.691,214.905 178.224,214.883 176.907,215.251M192.226,215.17C191.682,215.327 191.014,215.654 190.742,215.898C190.292,216.302 190.201,216.3 189.73,215.874C189.423,215.596 188.735,215.406 188.034,215.406L186.855,215.406L186.855,231.519L189.682,231.519L189.682,228.992C189.682,226.226 189.847,225.898 190.85,226.674C193.51,228.731 197.393,226.815 198.083,223.105C199.045,217.935 196.168,214.038 192.226,215.17M210.211,215.24C204.305,217.069 204.749,226.187 210.799,227.318C213.546,227.831 216.018,227.013 217.104,225.232C218.033,223.709 217.571,223.341 216.27,224.567C213.871,226.827 208.901,225.153 209.245,222.201L209.329,221.484L213.71,221.343L218.092,221.201L218.004,220.071C217.708,216.262 214.111,214.032 210.211,215.24M227.277,215.216C224.576,216.12 223.38,218.591 224.728,220.484C225.315,221.31 226.039,221.676 228.127,222.203C229.524,222.556 230.671,223.442 230.671,224.17C230.671,226.112 226.896,226.587 225.171,224.863C223.974,223.666 223.474,224.09 224.345,225.564C225.979,228.331 232.128,227.984 233.258,225.061C234.101,222.879 233.075,220.988 230.692,220.328C227.446,219.429 226.838,218.97 227.297,217.757C227.817,216.38 230.613,216.135 231.909,217.352C232.673,218.07 233.216,218.124 233.216,217.481C233.216,215.824 229.592,214.442 227.277,215.216M268.755,215.169C267.617,215.486 266.007,216.88 266.007,217.548C266.007,218.129 266.405,218.048 267.62,217.218C269.143,216.178 270.904,216.375 272.021,217.711C273.372,219.328 273.03,219.807 270.61,219.688C266.486,219.485 264.126,222.044 265.398,225.338C266.126,227.224 269.301,227.94 271.361,226.684C272.259,226.137 272.36,226.128 272.677,226.562C272.927,226.903 273.356,227.008 274.249,226.943L275.477,226.855L275.475,222.28C275.472,215.948 273.488,213.849 268.755,215.169M262.191,215.331C261.88,215.409 261.282,215.716 260.863,216.014C260.108,216.549 260.097,216.549 259.793,215.981C259.434,215.31 256.965,215.118 256.956,215.76C256.945,216.642 256.938,226.328 256.949,226.643C256.957,226.877 257.439,226.996 258.375,226.996L259.788,226.996L259.788,222.635C259.788,217.366 260.104,216.875 263.301,217.168C264.015,217.233 264.129,217.147 264.135,216.531C264.147,215.223 263.706,214.951 262.191,215.331M283.826,215.317C283.442,215.397 282.821,215.704 282.445,215.999C281.568,216.689 281.272,216.679 281.272,215.956C281.272,215.44 281.124,215.385 279.929,215.462L278.587,215.548L278.587,226.855L279.922,226.941L281.258,227.027L281.336,222.57L281.413,218.114L282.374,217.467C285.11,215.624 286.078,216.983 286.078,222.672L286.078,227.027L287.42,226.941L288.763,226.855L288.763,217.112L287.914,216.263C287.037,215.388 285.36,214.999 283.826,215.317M193.998,217.312C196.798,219.846 195.112,226.364 191.816,225.746C189.93,225.392 188.933,221.478 189.854,218.043C190.224,216.666 192.784,216.214 193.998,217.312M133.38,217.34C133.819,217.677 134.055,218.172 134.087,218.817L134.134,219.788L131.554,219.869C128.652,219.96 128.225,219.683 129.116,218.289C130.115,216.726 132.029,216.3 133.38,217.34M166.67,217.582C167.123,218.072 167.346,218.603 167.293,219.066C167.172,220.098 162.181,220.217 162.035,219.191C161.747,217.173 165.185,215.979 166.67,217.582M179.804,217.111C181.785,218.171 181.952,223.18 180.069,225.062C177.566,227.566 174.761,223.822 175.823,219.393C176.348,217.208 178.103,216.201 179.804,217.111M214.161,217.582C215.633,219.171 215.093,219.776 212.119,219.869C209.217,219.96 208.79,219.683 209.681,218.289C210.789,216.557 212.902,216.224 214.161,217.582M299.181,217.513C300.031,218.301 300.323,223.775 299.567,224.759C297.557,227.377 294.514,225.374 294.455,221.394C294.397,217.481 296.915,215.413 299.181,217.513M250.209,219.732C251.514,220.547 251.805,222.556 250.835,224.055C250.065,225.246 246.484,225.757 245.946,224.754C245.525,223.967 245.572,219.844 246.007,219.397C246.426,218.967 249.358,219.201 250.209,219.732M272.452,221.682C272.945,222.175 272.884,224.589 272.367,225.018C270.888,226.246 267.986,225.25 267.986,223.514C267.986,221.871 271.287,220.517 272.452,221.682" style="fill:rgb(27,55,127);"/>
                        <path id="path02" serif:id="path0" d="M133.708,169.321C128.684,169.97 126.041,171.918 125.239,175.563C124.652,178.229 124.954,195.154 125.615,196.675C128.65,203.652 147.935,203.319 150.052,196.254C150.264,195.544 150.389,193.026 150.389,189.437L150.389,183.746L138.799,183.746L138.799,187.986L142.756,187.986L142.756,195.317L141.779,196.294C139.79,198.283 135.073,197.965 133.703,195.748C133.176,194.895 133.145,194.312 133.145,185.196L133.145,175.548L134.276,174.417L135.406,173.286L137.766,173.286C141.741,173.286 142.756,174.175 142.756,177.658L142.756,179.788L150.389,179.788L150.389,177.771C150.389,171.017 144.333,167.949 133.708,169.321M196.133,169.341C188.471,170.411 187.419,172.337 187.424,185.281C187.428,194.94 187.602,196.333 189.032,198.094C193.292,203.342 208.724,202.828 212.431,197.314L213.286,196.042L213.286,175.085L212.596,173.742C210.715,170.085 203.883,168.258 196.133,169.341M156.82,169.488C156.703,169.608 156.608,176.812 156.608,185.497L156.608,201.288L160.587,201.209L164.567,201.131L164.535,195.124C164.495,187.564 164.361,187.873 167.59,188.066C173.322,188.409 174.134,189.464 174.134,196.568C174.134,201.721 173.71,201.272 178.579,201.272L182.681,201.272L182.461,200.636C182.34,200.286 182.157,197.774 182.055,195.053C181.821,188.823 181.365,187.853 178.021,186.473C176.654,185.909 176.685,185.582 178.167,184.906C181.146,183.55 181.908,182.103 181.908,177.809C181.908,172.836 180.667,171.231 175.851,169.974C174.113,169.52 157.209,169.089 156.82,169.488M219.201,169.707C218.773,170.821 219.226,196.049 219.689,196.89C222.832,202.608 237.513,203.703 242.616,198.599C244.492,196.724 244.523,196.454 244.523,182.132L244.523,169.313L240.695,169.391L236.867,169.47L236.884,181.975C236.903,195.585 236.875,195.856 235.329,196.869C233.403,198.131 229.217,197.681 227.996,196.081L227.285,195.149L227.211,182.309L227.138,169.47L223.245,169.391C220.122,169.328 219.322,169.391 219.201,169.707M251.021,169.439C251.019,169.534 251.016,176.703 251.013,185.371L251.009,201.131L259.211,201.287L259.288,195.273L259.364,189.258L263.746,189.068C273.847,188.629 275.901,186.957 275.901,179.177C275.901,172.973 274.783,171.372 269.481,169.986C267.82,169.551 251.029,169.055 251.021,169.439M170.534,173.604C173.238,174.147 173.71,174.899 173.71,178.657C173.71,182.162 173.243,183.047 171.049,183.705C169.6,184.139 165.301,184.128 164.862,183.689C164.484,183.311 164.373,174.514 164.739,173.965C165.224,173.239 167.891,173.073 170.534,173.604M203.314,173.64C205.235,174.732 205.23,174.7 205.226,185.352C205.22,197.411 205.202,197.456 200.474,197.456C195.728,197.456 195.76,197.539 195.76,185.084L195.76,175.2L196.867,174.243C198.092,173.184 201.889,172.829 203.314,173.64M266.049,173.933C267.732,174.636 267.986,175.346 267.986,179.345L267.986,182.879L266.987,183.878L265.988,184.876L259.223,184.876L259.223,179.243C259.223,174.123 259.268,173.597 259.717,173.462C260.624,173.191 265.063,173.521 266.049,173.933" style="fill:rgb(27,55,127);"/>
                    </g>
                </g>
                <g>
                    <g>
                        <path d="M28.103,51.425C28.039,51.49 27.986,74.737 27.986,103.086L27.986,154.629L49.47,154.629L49.47,122.403C49.47,94.047 49.521,90.177 49.891,90.177C50.123,90.177 51.299,91.217 52.506,92.49C55,95.119 55.945,96.102 60.5,100.807C66.786,107.3 77.678,118.605 79.381,120.405L81.102,122.223L82.571,120.687C84.59,118.577 89.265,113.714 93.993,108.806C96.17,106.547 99.216,103.371 100.764,101.749C108.166,93.986 111.705,90.459 112.092,90.459C112.466,90.459 112.515,94.209 112.505,122.473L112.495,154.488L133.852,154.488L133.929,149.575L134.007,144.662L132.378,142.508C126.343,134.526 123.255,127.537 121.02,116.799C119.66,110.262 119.943,101.736 121.822,92.669C123.197,86.031 128.802,74.684 133.108,69.823L133.984,68.834L133.988,60.141L133.993,51.449L112.32,51.449L111.519,52.367C109.952,54.165 108.44,55.852 107.022,57.386C106.23,58.242 105.02,59.578 104.331,60.354C103.643,61.131 102.371,62.54 101.504,63.485C100.638,64.431 99.42,65.769 98.799,66.458C98.177,67.148 96.523,68.982 95.124,70.534C93.724,72.086 92.071,73.924 91.449,74.618C89.799,76.462 87.274,79.22 86.784,79.714C86.295,80.207 82.321,84.654 81.57,85.548C80.929,86.311 80.297,86.145 79.503,85.002C79.158,84.505 78.27,83.46 77.53,82.678C76.789,81.897 75.166,80.116 73.922,78.721C72.678,77.325 71.597,76.12 71.519,76.042C71.39,75.914 66.676,70.693 66.007,69.937C65.852,69.762 65.216,69.058 64.594,68.373C63.972,67.688 62.318,65.858 60.919,64.306C59.52,62.754 58.309,61.42 58.228,61.343C58.147,61.265 57.257,60.25 56.249,59.087C55.241,57.925 53.972,56.52 53.428,55.966C52.883,55.412 51.754,54.172 50.917,53.21L49.397,51.462L38.809,51.385C32.986,51.342 28.168,51.36 28.103,51.425" style="fill:rgb(27,55,127);"/>
                        <path d="M201.837,52.068C210.566,55.379 222.522,64.774 226.892,71.756C226.925,71.809 230.396,71.836 234.605,71.816C239.583,71.793 242.456,71.887 242.825,72.084C243.389,72.386 243.392,72.637 243.392,113.512L243.392,154.636L263.604,154.488L263.672,113.375C263.726,80.684 263.813,72.216 264.096,72.033C264.292,71.907 271.767,71.806 280.707,71.809C289.647,71.813 297.12,71.812 297.314,71.809C297.591,71.804 297.668,69.575 297.668,61.625L297.668,51.449L248.975,51.463L200.283,51.478L201.837,52.068" style="fill:rgb(27,55,127);"/>
                        <path d="M305.018,103.04L305.018,154.631L338.445,154.559L371.873,154.488L371.947,144.947L372.022,135.406L349.702,135.406C336.145,135.406 327.319,135.302 327.22,135.142C327.13,134.996 327.06,116.106 327.064,93.163L327.073,51.449L305.018,51.449L305.018,103.04" style="fill:rgb(27,55,127);"/>
                    </g>
                    <path id="path1" d="M175.124,55.852C171.669,56.186 164.822,57.738 162.546,58.704C162.001,58.935 161.027,59.306 160.383,59.528C159.739,59.75 157.978,60.512 156.47,61.221C143.395,67.372 134.482,77.216 130.239,90.192C129.304,93.052 129.087,93.9 128.29,97.809C127.782,100.297 127.787,110.523 128.297,113.357C130.902,127.838 138.892,141.151 149.462,148.624C153.252,151.303 156.977,153.241 161.325,154.796C163.657,155.63 165.018,156.005 168.968,156.905C183.318,160.176 203.312,153.572 217.346,140.927C221.015,137.621 225.62,130.749 227.841,125.265C229.196,121.918 230.78,116.081 230.621,115.017L230.53,114.409L219.647,114.465C213.661,114.496 208.671,114.612 208.557,114.724C208.444,114.836 207.779,116.104 207.08,117.54C199.967,132.155 182.597,139.724 168.714,134.257C160.657,131.084 153.333,121.986 150.67,111.842C149.237,106.383 149.895,97.603 152.094,92.862C159.751,76.348 182.714,71.093 195.544,82.919C197.36,84.593 197.712,84.311 188.41,88.646C186.855,89.371 183.802,90.818 181.625,91.862C179.449,92.906 176.336,94.385 174.708,95.148C166.02,99.226 166.106,99.128 166.09,104.876C166.078,109.519 167.801,112.104 172.338,114.248C175.244,115.62 176.044,115.618 178.837,114.232C180.059,113.625 182.205,112.591 183.604,111.935C185.004,111.278 187.611,110.042 189.399,109.186C191.187,108.331 193.668,107.156 194.912,106.575C197.162,105.523 199.57,104.384 205.23,101.694C208.479,100.149 211.484,98.725 216.678,96.269C226.052,91.837 226.714,91.487 226.714,90.969C226.714,90.312 223.562,83.741 222.303,81.773C221.775,80.947 221.343,80.202 221.343,80.116C221.343,80.031 220.561,78.857 219.605,77.507C211.219,65.664 201.714,59.33 187.919,56.391C185.933,55.968 177.567,55.616 175.124,55.852" style="fill:rgb(252,211,5);"/>
                </g>
            </g>
        </g>
    </g>
</svg>
