<?xml version="1.0" standalone="no"?>
<!DOCTYPE svg PUBLIC "-//W3C//DTD SVG 20010904//EN"
 "http://www.w3.org/TR/2001/REC-SVG-20010904/DTD/svg10.dtd">
<svg version="1.0" xmlns="http://www.w3.org/2000/svg"
 width="700.000000pt" height="700.000000pt" viewBox="0 0 700.000000 700.000000"
 preserveAspectRatio="xMidYMid meet">
<metadata>
Created by potrace 1.14, written by Peter Selinger 2001-2017
</metadata>
<g transform="translate(0.000000,700.000000) scale(0.100000,-0.100000)"
fill="#000000" stroke="none">
<path d="M781 6988 c-104 -29 -190 -132 -245 -293 l-20 -60 -3 -3169 -2 -3168
21 -67 c18 -53 33 -77 79 -124 32 -31 79 -67 106 -80 l48 -22 1795 0 1795 0
56 27 c70 35 132 97 167 168 l27 55 3 1238 2 1237 785 0 c432 0 786 0 788 0 1
0 24 7 51 15 107 32 178 94 225 195 l26 55 2 660 c1 653 1 661 -20 723 -39
114 -158 216 -265 227 -20 2 -387 4 -814 4 l-778 1 0 980 c0 858 -2 991 -16
1058 -22 109 -67 196 -134 262 -100 99 84 90 -1904 89 -1110 0 -1753 -4 -1775
-11z m3441 -385 c7 -17 13 -111 16 -243 l4 -215 -1680 0 -1680 0 3 210 c1 137
7 221 15 243 l12 32 1649 0 1649 0 12 -27z m18 -1410 l0 -582 -882 -3 -883 -3
-55 -27 c-71 -35 -133 -97 -168 -167 l-27 -56 0 -685 0 -685 22 -48 c33 -70
103 -140 176 -173 l62 -29 400 -3 c220 -2 401 -4 402 -5 1 -2 3 -198 5 -436
l3 -433 33 -29 c27 -24 41 -29 75 -28 41 2 50 10 439 398 l398 395 0 -1112 0
-1112 -1679 0 -1679 0 0 2703 0 2703 1679 0 1679 0 0 -583z m1902 -936 c3 -7
4 -275 4 -597 l-1 -585 -1790 0 -1790 0 -2 597 -2 597 1789 0 c1389 0 1789 -3
1792 -12z"/>
<path d="M1823 6499 c-69 -34 -92 -112 -53 -177 21 -34 71 -62 111 -62 38 0
85 30 106 68 60 110 -51 227 -164 171z"/>
<path d="M2249 6502 c-88 -43 -94 -163 -10 -219 l34 -23 454 0 c513 0 506 -1
542 72 31 63 14 126 -46 165 -25 17 -65 18 -485 19 -386 0 -463 -2 -489 -14z"/>
<path d="M3258 3916 c-61 -18 -121 -68 -153 -127 -70 -130 -14 -291 122 -351
169 -75 357 51 356 238 -1 165 -166 287 -325 240z"/>
<path d="M4265 3909 c-97 -36 -156 -118 -163 -225 -5 -77 24 -149 80 -200 54
-49 101 -67 173 -67 138 0 247 107 252 247 6 179 -174 309 -342 245z"/>
<path d="M5325 3920 c-56 -12 -106 -42 -140 -84 -41 -50 -53 -81 -60 -146 -22
-224 256 -361 421 -208 62 57 86 113 86 199 -2 152 -157 273 -307 239z"/>
</g>
</svg>
